<svg width="25" height="24" viewBox="0 0 25 24" fill="none" xmlns="http://www.w3.org/2000/svg">
<path d="M23.3617 6.90842C23.0715 6.29533 22.7301 5.70782 22.3413 5.15202L18.251 7.07318H18.2558L14.8987 8.6542C14.157 8.12372 13.2601 7.85424 12.3488 7.88799C11.4374 7.92172 10.563 8.25678 9.8625 8.84066C9.16199 9.42454 8.67495 10.2243 8.47769 11.1146C8.28044 12.0049 8.3841 12.9355 8.77243 13.7605L5.6428 15.2327C4.93803 13.7462 4.7369 12.0705 5.06985 10.4594C5.40281 8.84835 6.25171 7.38962 7.48802 6.30415C8.72433 5.21868 10.2807 4.56556 11.9215 4.44373C13.5622 4.32189 15.198 4.73798 16.5811 5.62895L21.0067 3.55075C18.8933 1.41781 16.0563 0.155479 13.0568 0.0134334C10.0573 -0.128612 7.11368 0.859958 4.80807 2.78366C2.50246 4.70736 1.00273 7.42609 0.605434 10.4022C0.208142 13.3784 0.942221 16.3953 2.66251 18.8563L10.1089 15.3589C10.8507 15.8894 11.7475 16.1589 12.6588 16.1252C13.5702 16.0914 14.4446 15.7564 15.1451 15.1725C15.8456 14.5886 16.3327 13.7889 16.5299 12.8986C16.7272 12.0083 16.6235 11.0777 16.2352 10.2526L19.3658 8.7833C20.0694 10.2704 20.2692 11.9463 19.935 13.5571C19.6008 15.168 18.7507 16.626 17.5135 17.7105C16.2763 18.795 14.7194 19.4469 13.0785 19.5674C11.4376 19.6879 9.80216 19.2705 8.41977 18.3784L3.99607 20.4576C5.98749 22.4629 8.6232 23.7006 11.4382 23.9523C14.2533 24.204 17.0668 23.4536 19.3825 21.8335C21.6982 20.2133 23.3673 17.8275 24.0953 15.0968C24.8233 12.3662 24.5635 9.46619 23.3617 6.90842Z" fill="#4BAF64"/>
</svg>
